<?xml version="1.0" standalone="no"?>
<!DOCTYPE svg PUBLIC "-//W3C//DTD SVG 20010904//EN"
 "http://www.w3.org/TR/2001/REC-SVG-20010904/DTD/svg10.dtd">
<svg version="1.0" xmlns="http://www.w3.org/2000/svg"
 width="640.000000pt" height="640.000000pt" viewBox="0 0 640.000000 640.000000"
 preserveAspectRatio="xMidYMid meet">
<metadata>
Created by potrace 1.11, written by Peter Selinger 2001-2013
</metadata>
<g transform="translate(0.000000,640.000000) scale(0.100000,-0.100000)"
fill="#000000" stroke="none">
<path d="M2012 5739 c-317 -61 -573 -215 -774 -465 -52 -64 -118 -166 -145
-224 -57 -121 -108 -283 -120 -380 -9 -72 -9 -312 -1 -370 12 -84 42 -202 67
-265 40 -100 114 -241 153 -290 102 -131 158 -190 243 -258 33 -26 65 -51 70
-55 47 -37 190 -113 290 -153 32 -12 119 -39 146 -44 109 -21 151 -28 199 -30
30 -2 73 -4 95 -5 231 -13 556 95 767 254 113 85 174 146 286 291 14 17 102
164 102 170 0 2 11 28 24 57 24 53 63 168 70 204 2 10 10 48 17 84 14 68 18
323 7 400 -12 85 -42 202 -67 265 -29 71 -59 135 -78 167 -13 21 -23 42 -23
48 0 5 -4 10 -10 10 -5 0 -10 6 -10 13 0 17 -129 178 -184 231 -61 59 -199
166 -213 166 -7 0 -13 5 -13 10 0 6 -5 10 -10 10 -6 0 -27 10 -48 23 -32 19
-96 49 -167 78 -35 13 -118 38 -165 48 -25 5 -58 13 -75 16 -16 4 -100 8 -185
10 -116 1 -178 -3 -248 -16z"/>
<path d="M5943 4460 c-16 -10 -251 -239 -523 -509 -272 -270 -507 -503 -522
-518 l-28 -26 -239 241 c-132 133 -243 243 -248 243 -46 7 -92 4 -108 -7 -33
-23 -315 -306 -328 -328 -16 -30 -17 -66 -2 -101 7 -16 204 -222 437 -456 444
-447 448 -449 517 -434 21 4 143 119 430 403 955 946 1059 1052 1066 1082 14
62 -1 85 -163 249 -87 87 -166 164 -178 169 -30 15 -80 12 -111 -8z"/>
<path d="M1366 2883 c-2 -2 -48 -6 -102 -8 -55 -3 -110 -7 -124 -10 -14 -3
-38 -8 -55 -11 -92 -16 -302 -86 -315 -104 -3 -4 -20 -12 -38 -18 -32 -11
-186 -111 -239 -154 -46 -39 -167 -161 -193 -196 -14 -19 -30 -39 -36 -46 -54
-58 -153 -251 -195 -379 -32 -96 -36 -110 -45 -166 -3 -18 -8 -43 -11 -55 -9
-32 -14 -696 -6 -709 4 -7 8 -16 8 -22 1 -25 31 -94 60 -140 69 -108 193 -193
315 -215 64 -12 3689 -9 3730 2 59 17 168 80 209 120 42 42 111 139 115 162 1
6 5 17 9 24 5 6 6 12 2 12 -3 0 -1 8 4 18 14 27 22 121 21 250 -1 135 -1 122
0 202 1 36 1 67 0 70 0 3 -3 48 -5 100 -5 97 -7 118 -19 180 -4 19 -8 42 -10
50 -6 36 -40 141 -69 210 -30 75 -120 239 -136 250 -4 3 -10 10 -12 16 -14 40
-209 241 -280 289 -24 16 -46 33 -49 36 -10 12 -92 60 -168 98 -77 39 -252
105 -252 95 0 -2 -8 -1 -17 5 -10 5 -36 11 -58 15 -22 3 -51 8 -65 11 -24 6
-169 14 -297 17 -59 1 -104 -12 -211 -59 -18 -8 -41 -16 -51 -18 -10 -2 -50
-13 -90 -25 -40 -11 -87 -23 -106 -24 -18 -2 -37 -6 -42 -9 -42 -26 -551 -28
-592 -3 -3 2 -24 7 -46 10 -90 15 -213 53 -371 115 -27 11 -56 16 -63 12 -6
-4 -32 -5 -56 -1 -25 4 -47 5 -49 3z"/>
</g>
</svg>
