<svg width="417" height="293" viewBox="0 0 417 293" fill="none" xmlns="http://www.w3.org/2000/svg">
<path d="M334.877 272.514C332.17 282.833 322.686 289.281 322.686 289.281C322.686 289.281 317.59 279 320.296 268.681C323.003 258.362 332.487 251.913 332.487 251.913C332.487 251.913 337.584 262.195 334.877 272.514Z" fill="#888888"/>
<path d="M330.771 270.331C323.19 277.829 322.342 289.276 322.342 289.276C322.342 289.276 333.785 288.565 341.366 281.067C348.947 273.569 349.795 262.122 349.795 262.122C349.795 262.122 338.352 262.833 330.771 270.331Z" fill="#333333"/>
<path d="M56.0879 233.479H70.3648L105.547 219.696C105.547 219.696 130.532 209.487 128.492 228.885C126.453 248.283 122.883 274.316 122.883 274.316C122.883 274.316 111.666 269.212 105.547 270.743C99.4285 272.274 103.508 239.605 103.508 239.605C103.508 239.605 53.5384 263.597 48.9494 260.534C44.3604 257.471 43.3406 236.031 43.3406 236.031L56.0879 233.479Z" fill="#2F2E41"/>
<path opacity="0.75" d="M56.0879 233.479H70.3648L105.547 219.696C105.547 219.696 130.532 209.487 128.492 228.885C126.453 248.283 122.883 274.316 122.883 274.316C122.883 274.316 111.666 269.212 105.547 270.743C99.4285 272.274 103.508 239.605 103.508 239.605C103.508 239.605 53.5384 263.597 48.9494 260.534C44.3604 257.471 43.3406 236.031 43.3406 236.031L56.0879 233.479Z" fill="#333333"/>
<path d="M78.5812 188.718L95.8592 213.571L136.141 247.262C136.141 247.262 173.362 255.94 168.264 262.065C163.165 268.191 132.061 255.94 132.061 255.94C132.061 255.94 85.6615 222.249 84.1318 219.696C82.6021 217.144 65.7758 193.152 65.7758 193.152L78.5812 188.718Z" fill="#A0616A"/>
<path opacity="0.1" d="M78.5812 188.718L95.8592 213.571L136.141 247.262C136.141 247.262 173.362 255.94 168.264 262.065C163.165 268.191 132.061 255.94 132.061 255.94C132.061 255.94 85.6615 222.249 84.1318 219.696C82.6021 217.144 65.7758 193.152 65.7758 193.152L78.5812 188.718Z" fill="black"/>
<path d="M68.3252 168.65L79.5428 190.6C79.5428 190.6 76.9933 201.32 72.9142 202.341C68.8351 203.361 51.4989 189.068 51.4989 189.068L68.3252 168.65Z" fill="#D0CDE1"/>
<path opacity="0.5" d="M68.3252 168.65L79.5428 190.6C79.5428 190.6 76.9933 201.32 72.9142 202.341C68.8351 203.361 51.4989 189.068 51.4989 189.068L68.3252 168.65Z" fill="black"/>
<path d="M205.175 222.114L208.488 235.798C208.525 235.951 208.52 236.11 208.472 236.26L193.441 283.285C193.381 283.472 193.26 283.632 193.096 283.739C192.933 283.846 192.738 283.895 192.544 283.875C192.349 283.856 192.167 283.771 192.028 283.634C191.889 283.496 191.801 283.316 191.779 283.121L189.7 264.802C189.686 264.68 189.699 264.557 189.736 264.441L203.533 222.051C203.591 221.874 203.705 221.721 203.857 221.614C204.009 221.508 204.192 221.454 204.378 221.461C204.564 221.469 204.742 221.536 204.886 221.654C205.03 221.772 205.131 221.933 205.175 222.114Z" fill="#2F2E41"/>
<path d="M203.956 223.27L207.015 235.011L193.758 277.89L190.699 264.617L203.956 223.27Z" fill="#F2F2F2"/>
<path d="M137.16 287.078C137.67 288.609 190.189 286.568 190.699 286.057C191.143 285.418 191.519 284.733 191.82 284.015C192.3 282.994 192.738 281.973 192.738 281.973L190.699 265.444L138.69 263.597C138.69 263.597 137.39 277.604 137.125 284.015C137.058 285.633 137.058 286.772 137.16 287.078Z" fill="#3E3E3F"/>
<path opacity="0.1" d="M184.07 267.68L185.09 281.973H162.145V267.68H184.07Z" fill="black"/>
<path opacity="0.1" d="M154.497 272.274L154.634 272.247L153.987 278.4H141.24V272.274H154.497Z" fill="black"/>
<path opacity="0.1" d="M137.16 287.078C137.67 288.609 190.189 286.568 190.699 286.057C191.143 285.418 191.519 284.733 191.82 284.015H137.125C137.058 285.633 137.058 286.772 137.16 287.078Z" fill="black"/>
<path d="M75.9735 161.503C88.6457 161.503 98.9186 151.219 98.9186 138.532C98.9186 125.846 88.6457 115.561 75.9735 115.561C63.3014 115.561 53.0285 125.846 53.0285 138.532C53.0285 151.219 63.3014 161.503 75.9735 161.503Z" fill="#A0616A"/>
<path d="M74.4439 158.951C74.4439 158.951 66.7955 172.223 65.2659 179.369C63.7362 186.516 42.3208 165.076 42.3208 165.076L39.5164 157.675C39.5164 157.675 59.6571 148.231 58.1274 140.574C56.5977 132.917 74.4439 158.951 74.4439 158.951Z" fill="#A0616A"/>
<path d="M78.523 198.767L99.4285 226.332L149.398 263.597C149.398 263.597 185.6 271.254 177.442 276.869C169.283 282.484 145.828 271.764 145.828 271.764C145.828 271.764 95.3494 244.709 84.6417 233.479C73.934 222.249 54.0483 203.361 54.0483 203.361L78.523 198.767Z" fill="#A0616A"/>
<path d="M50.4791 241.646L56.5977 251.345L93.1146 239.844C101.127 237.32 109.913 238.249 117.02 242.731C123.393 246.751 127.472 253.132 118.294 262.576C99.9383 281.463 87.701 271.254 87.701 271.254C87.701 271.254 26.0044 300.35 15.8066 286.057C5.60878 271.764 5.09891 264.617 5.09891 264.617C5.09891 264.617 44.3604 240.115 50.4791 241.646Z" fill="#333333"/>
<path d="M126.963 275.337C126.963 275.337 143.279 286.057 123.903 291.162C104.527 296.266 90.2505 289.12 90.2505 289.12C90.2505 289.12 73.4241 289.12 73.4241 280.442C73.4241 271.764 79.0329 270.743 79.0329 270.743L96.3691 273.295C96.3691 273.295 117.275 267.68 126.963 275.337Z" fill="#DEDEDE"/>
<path d="M94.7965 132.754C96.3582 133.451 97.9068 134.276 99.6047 134.478C101.303 134.68 103.236 134.087 104.039 132.576C104.473 131.76 104.523 130.8 104.543 129.875C104.605 127.072 104.402 124.042 102.628 121.872C101.499 120.492 99.8502 119.622 98.6813 118.275C97.8439 117.309 97.2865 116.14 96.6864 115.011C94.4132 110.737 91.0475 106.629 86.3698 105.397C84.4165 104.882 82.3675 104.907 80.3479 104.936L68.5682 105.102C66.662 105.129 64.7263 105.161 62.9015 105.713C59.1099 106.861 56.3493 110.053 53.821 113.105C51.9294 115.389 50.0328 117.696 48.6132 120.301C46.5778 124.101 45.5486 128.36 45.6237 132.672C45.608 133.777 45.7506 134.88 46.0472 135.945C46.3942 136.922 46.8242 137.867 47.3323 138.771C49.5414 143.115 50.8531 148.541 48.3653 152.731C52.6869 150.964 56.9628 148.646 59.8136 144.945C61.0889 143.29 62.0891 141.352 63.7887 140.137C65.4882 138.922 68.2576 138.816 69.348 140.599C69.7229 141.321 69.9159 142.123 69.9103 142.936C69.9899 144.274 69.9877 145.664 70.5546 146.879C71.1214 148.094 72.4716 149.074 73.7607 148.71C75.9807 148.084 75.7681 144.673 77.478 143.124C78.7766 141.947 80.78 142.172 82.4483 141.638C84.392 141.015 85.8505 139.33 86.6815 137.464C87.3132 136.045 87.304 132.334 88.4993 131.565C89.9982 130.602 93.407 132.134 94.7965 132.754Z" fill="#333333"/>
<path d="M37.695 155.253C38.7272 154.978 39.814 154.98 40.8448 155.261C44.1179 156.141 51.4553 158.47 53.0285 162.014C55.0681 166.608 62.2065 173.754 62.2065 173.754C62.2065 173.754 71.8944 183.453 69.8549 190.089C67.8153 196.725 60.167 204.382 60.167 204.382C60.167 204.382 62.2065 236.031 52.0087 244.199C41.8109 252.366 37.7318 246.751 37.7318 254.408C37.7318 262.065 6.11868 286.057 0 271.254C0 271.254 3.05934 243.688 2.03956 233.989C1.03449 224.43 2.50586 164.791 37.695 155.253Z" fill="#888888"/>
<path d="M54.0483 168.139C54.0483 168.139 85.1516 191.11 79.5428 200.809C79.5428 200.809 60.6769 209.997 56.5978 209.487C52.5186 208.977 36.7121 191.11 32.6329 189.579C28.5538 188.047 26.5143 160.482 54.0483 168.139Z" fill="#888888"/>
<path d="M193.011 117.342C206.923 117.342 218.2 106.052 218.2 92.1247C218.2 78.1975 206.923 66.9072 193.011 66.9072C179.1 66.9072 167.822 78.1975 167.822 92.1247C167.822 106.052 179.1 117.342 193.011 117.342Z" fill="#F2F2F2"/>
<path d="M401.06 59.374H259.905V29.8037H401.06V59.374ZM260.526 58.7515H400.438V30.4262H260.526V58.7515Z" fill="#616161"/>
<path d="M390.799 35.7178H250.266V64.6655H390.799V35.7178Z" fill="#333333"/>
<path d="M161.429 8.09293C162.631 8.09293 163.605 7.11741 163.605 5.91404C163.605 4.71068 162.631 3.73515 161.429 3.73515C160.227 3.73515 159.252 4.71068 159.252 5.91404C159.252 7.11741 160.227 8.09293 161.429 8.09293Z" fill="#333333"/>
<path d="M168.891 8.09293C170.093 8.09293 171.067 7.11741 171.067 5.91404C171.067 4.71068 170.093 3.73515 168.891 3.73515C167.689 3.73515 166.714 4.71068 166.714 5.91404C166.714 7.11741 167.689 8.09293 168.891 8.09293Z" fill="#333333"/>
<path d="M176.353 8.09293C177.555 8.09293 178.529 7.11741 178.529 5.91404C178.529 4.71068 177.555 3.73515 176.353 3.73515C175.151 3.73515 174.176 4.71068 174.176 5.91404C174.176 7.11741 175.151 8.09293 176.353 8.09293Z" fill="#333333"/>
<path d="M417 170.574H155.21V0H417V170.574ZM155.832 169.951H416.378V0.622533H155.832V169.951Z" fill="#616161"/>
<path d="M416.689 9.44225H155.521V10.0648H416.689V9.44225Z" fill="#616161"/>
<path d="M162.051 7.47039C161.559 7.47039 161.078 7.32434 160.669 7.05073C160.26 6.77711 159.941 6.3882 159.753 5.93319C159.564 5.47818 159.515 4.9775 159.611 4.49446C159.707 4.01142 159.944 3.56772 160.292 3.21947C160.64 2.87122 161.083 2.63406 161.565 2.53798C162.048 2.44189 162.548 2.49121 163.002 2.67968C163.457 2.86815 163.845 3.18732 164.119 3.59682C164.392 4.00632 164.538 4.48776 164.538 4.98026C164.537 5.64045 164.275 6.27338 163.809 6.7402C163.342 7.20702 162.71 7.46962 162.051 7.47039ZM162.051 3.11266C161.682 3.11266 161.321 3.22219 161.014 3.42741C160.707 3.63262 160.468 3.9243 160.327 4.26556C160.186 4.60682 160.149 4.98233 160.221 5.34461C160.293 5.70689 160.471 6.03966 160.731 6.30085C160.992 6.56204 161.325 6.73991 161.687 6.81197C162.048 6.88403 162.424 6.84704 162.764 6.70569C163.105 6.56434 163.397 6.32496 163.602 6.01784C163.807 5.71071 163.916 5.34963 163.916 4.98026C163.915 4.48512 163.719 4.01042 163.369 3.6603C163.019 3.31018 162.545 3.11324 162.051 3.11266V3.11266Z" fill="#616161"/>
<path d="M169.513 7.47039C169.021 7.47039 168.54 7.32434 168.131 7.05073C167.722 6.77711 167.403 6.3882 167.215 5.93319C167.026 5.47818 166.977 4.9775 167.073 4.49446C167.169 4.01142 167.406 3.56772 167.754 3.21947C168.102 2.87122 168.545 2.63406 169.027 2.53798C169.51 2.44189 170.01 2.49121 170.464 2.67968C170.919 2.86815 171.307 3.18732 171.581 3.59682C171.854 4.00632 172 4.48776 172 4.98026C171.999 5.64045 171.737 6.27338 171.27 6.7402C170.804 7.20702 170.172 7.46962 169.513 7.47039V7.47039ZM169.513 3.11266C169.144 3.11266 168.783 3.22219 168.476 3.42741C168.169 3.63262 167.93 3.9243 167.789 4.26556C167.648 4.60682 167.611 4.98233 167.683 5.34461C167.755 5.70689 167.933 6.03966 168.193 6.30085C168.454 6.56204 168.787 6.73991 169.149 6.81197C169.51 6.88403 169.886 6.84704 170.226 6.70569C170.567 6.56434 170.859 6.32496 171.064 6.01784C171.269 5.71071 171.378 5.34963 171.378 4.98026C171.377 4.48512 171.181 4.01042 170.831 3.6603C170.481 3.31018 170.007 3.11324 169.513 3.11266V3.11266Z" fill="#616161"/>
<path d="M176.974 7.47038C176.482 7.47038 176.002 7.32434 175.593 7.05072C175.184 6.77711 174.865 6.3882 174.676 5.93319C174.488 5.47818 174.439 4.9775 174.535 4.49446C174.631 4.01142 174.868 3.56772 175.216 3.21947C175.563 2.87122 176.007 2.63406 176.489 2.53798C176.972 2.44189 177.472 2.49121 177.926 2.67968C178.381 2.86815 178.769 3.18731 179.043 3.59681C179.316 4.00631 179.462 4.48775 179.462 4.98025C179.461 5.64044 179.199 6.27337 178.732 6.7402C178.266 7.20702 177.634 7.46962 176.974 7.47038V7.47038ZM176.974 3.11266C176.605 3.11266 176.245 3.22219 175.938 3.42741C175.631 3.63262 175.392 3.9243 175.251 4.26556C175.11 4.60682 175.073 4.98232 175.145 5.3446C175.217 5.70688 175.394 6.03966 175.655 6.30085C175.916 6.56203 176.249 6.73991 176.61 6.81197C176.972 6.88403 177.347 6.84705 177.688 6.70569C178.029 6.56434 178.321 6.32496 178.526 6.01784C178.731 5.71071 178.84 5.34963 178.84 4.98026C178.839 4.48512 178.643 4.01042 178.293 3.6603C177.943 3.31019 177.469 3.11324 176.974 3.11266V3.11266Z" fill="#616161"/>
<path d="M237.829 9.75351H237.207V170.504H237.829V9.75351Z" fill="#616161"/>
<path d="M312.605 88.7886H266.9V95.014H312.605V88.7886Z" fill="#F2F2F2"/>
<path d="M384.426 88.7886H338.721V95.014H384.426V88.7886Z" fill="#F2F2F2"/>
<path d="M315.403 92.2126H269.077V85.3647H315.403V92.2126ZM269.698 91.59H314.781V85.9872H269.698V91.59Z" fill="#616161"/>
<path d="M312.605 137.035H266.9V143.26H312.605V137.035Z" fill="#F2F2F2"/>
<path d="M315.403 140.459H269.077V133.611H315.403V140.459ZM269.698 139.836H314.781V134.233H269.698V139.836Z" fill="#616161"/>
<path d="M384.581 112.289H267.056V118.515H384.581V112.289Z" fill="#F2F2F2"/>
<path d="M387.379 116.336H269.232V109.488H387.379V116.336ZM269.854 115.713H386.758V110.11H269.854V115.713Z" fill="#616161"/>
<path d="M387.224 92.2126H340.898V85.3647H387.224V92.2126ZM341.52 91.59H386.602V85.9872H341.52V91.59Z" fill="#616161"/>
<path d="M197.274 110.747C192.216 110.747 187.271 109.245 183.065 106.432C178.859 103.618 175.58 99.619 173.645 94.9402C171.709 90.2614 171.202 85.113 172.189 80.146C173.176 75.179 175.612 70.6166 179.189 67.0356C182.766 63.4546 187.323 61.0159 192.284 60.0279C197.246 59.0399 202.388 59.547 207.062 61.485C211.735 63.423 215.73 66.7049 218.54 70.9158C221.351 75.1266 222.851 80.0771 222.851 85.1414C222.843 91.9301 220.146 98.4385 215.351 103.239C210.556 108.039 204.055 110.739 197.274 110.747ZM197.274 60.3118C192.369 60.3118 187.574 61.7681 183.495 64.4964C179.417 67.2247 176.238 71.1025 174.361 75.6395C172.483 80.1766 171.992 85.169 172.949 89.9854C173.906 94.8019 176.268 99.2261 179.737 102.699C183.205 106.171 187.625 108.536 192.436 109.494C197.247 110.452 202.233 109.96 206.765 108.081C211.297 106.202 215.171 103.019 217.896 98.936C220.621 94.8528 222.076 90.0522 222.076 85.1414C222.068 78.5585 219.453 72.2473 214.803 67.5925C210.154 62.9377 203.85 60.3193 197.274 60.3118Z" fill="#616161"/>
<path d="M399.561 288.822H289.892V289.598H399.561V288.822Z" fill="#616161"/>
</svg>
